<?xml version="1.0" encoding="utf-8"?>
<!-- Generator: Adobe Illustrator 24.0.1, SVG Export Plug-In . SVG Version: 6.00 Build 0)  -->
<svg version="1.1" id="_x32_" xmlns="http://www.w3.org/2000/svg" xmlns:xlink="http://www.w3.org/1999/xlink" x="0px" y="0px"
	 viewBox="0 0 328.66 330.01" style="enable-background:new 0 0 328.66 330.01;" xml:space="preserve">
<style type="text/css">
	.st0{fill-rule:evenodd;clip-rule:evenodd;}
	.st1{fill:none;stroke:#000000;stroke-width:0;stroke-linecap:round;stroke-linejoin:round;stroke-miterlimit:10;}
	.st2{fill:none;stroke:#000000;stroke-width:0.7087;stroke-linecap:round;stroke-linejoin:round;stroke-miterlimit:10;}
</style>
<g id="HATCH">
	<path class="st0" d="M281.49,119.35c6.33-2.68,11.82-5.01,11.82-5.01c1.36,3.56,2.61,7.09,3.74,10.68l30.28,20.86
		c1.79,13.85,1.77,27.77,0.02,41.55l-30.28,20.35c-2.51,8.11-5.81,15.92-9.76,23.4l6.88,36.05c-8.51,10.92-18.38,20.71-29.38,29.14
		l-35.99-7.19c-7.55,3.92-15.34,7.11-23.48,9.56l-20.6,30.11c-13.82,1.66-27.72,1.54-41.54-0.37l-20.6-30.45
		c-8.13-2.58-15.93-5.9-23.44-9.91l-36.03,6.56c-10.99-8.62-20.85-18.57-29.38-29.63l6.94-35.89c-1.05-2.09-2.14-4.16-3.05-6.24
		c0,0,5.46-2.31,11.76-4.98c30.12,65.65,97.48,91.73,163.96,63.49S307.82,186.61,281.49,119.35z M84.63,232.73h12.25v-80.66
		l-12.25,12.06V232.73L84.63,232.73z M55.17,151.22l17.19,0.13l91.7-91.7l91.7,91.7l17.19-0.13L164.06,42.34l-43.73,43.73V74.25
		h-16.32v28.13L55.17,151.22L55.17,151.22z M231.23,232.73h12.25v-68.6l-12.25-12.06V232.73L231.23,232.73z M164.03,165.33
		l-20.31,58.95c-0.49,1.84,0.06,3.73,1.55,5.03c1.13,0.92,2.78,1.17,4.17,0.63l69.24-28.28l-4.69-31.84
		c-0.44-1.34-1.72-2.05-3.04-1.95l-4.39,0.82c0.03,3.61-0.1,7.3-0.46,11.09c-0.45,5.02-3.57,9.32-8.16,11.41l-36.21,16.06
		l18.08-53.87l-39.27-27.31l30.62-12.47c3.75-2.19,8.62-1.02,10.84,2.73l7.15,12.02l5.4-1.96l0.52-3.43l-10.3-26.3l-71.41,28.48
		l1.86,5.81L164.03,165.33z M46.57,211.31c-26.33-67.26,1.66-133.84,68.13-162.08s133.83-2.17,163.96,63.48
		c6.32-2.69,11.81-5.03,11.81-5.03c-1.62-3.45-3.29-6.8-5.09-10.11l6.01-36.27c-8.73-10.9-18.76-20.56-29.89-28.86l-35.67,7.67
		c-7.58-3.82-15.5-6.87-23.61-9.22L181.05,0.9c-13.77-1.46-27.67-1.15-41.37,0.92l-19.81,30.89c-8.06,2.71-15.77,6.1-23.18,10.26
		L60.71,36.9c-10.79,8.79-20.35,18.88-28.58,30.16l7.61,35.97c-3.79,7.65-6.82,15.56-9.14,23.75L0.88,148.15
		c-1.42,13.9-1.11,27.9,0.93,41.72l30.65,19.92c0.77,2.2,1.51,4.43,2.37,6.53C34.82,216.32,40.27,214,46.57,211.31z"/>
</g>
<g id="SPLINE">
	<path class="st1" d="M46.57,211.31c-26.33-67.26,1.66-133.84,68.13-162.08s133.83-2.17,163.96,63.48
		c6.32-2.69,11.81-5.03,11.81-5.03c-1.62-3.45-3.29-6.8-5.09-10.11l6.01-36.27c-8.73-10.9-18.76-20.56-29.89-28.86l-35.67,7.67
		c-7.58-3.82-15.5-6.87-23.61-9.22L181.05,0.9c-13.77-1.46-27.67-1.15-41.37,0.92l-19.81,30.89c-8.06,2.71-15.77,6.1-23.18,10.26
		L60.71,36.9c-10.79,8.79-20.35,18.88-28.58,30.16l7.61,35.97c-3.79,7.65-6.82,15.56-9.14,23.75L0.88,148.15
		c-1.42,13.9-1.11,27.9,0.93,41.72l30.65,19.92c0.77,2.2,1.51,4.43,2.37,6.53C34.82,216.32,40.27,214,46.57,211.31z"/>
</g>
<g id="SPLINE_1_">
	<path class="st1" d="M164.03,165.33l-20.31,58.95c-0.49,1.84,0.06,3.73,1.55,5.03c1.13,0.92,2.78,1.17,4.17,0.63l69.24-28.28
		l-4.69-31.84c-0.44-1.34-1.72-2.05-3.04-1.95l-4.39,0.82c0.03,3.61-0.1,7.3-0.46,11.09c-0.45,5.02-3.57,9.32-8.16,11.41
		l-36.21,16.06l18.08-53.87l-39.27-27.31l30.62-12.47c3.75-2.19,8.62-1.02,10.84,2.73l7.15,12.02l5.4-1.96l0.52-3.43l-10.3-26.3
		l-71.41,28.48l1.86,5.81L164.03,165.33z"/>
</g>
<g id="SPLINE_2_">
	<path class="st1" d="M281.49,119.35c6.33-2.68,11.82-5.01,11.82-5.01c1.36,3.56,2.61,7.09,3.74,10.68l30.28,20.86
		c1.79,13.85,1.77,27.77,0.02,41.55l-30.28,20.35c-2.51,8.11-5.81,15.92-9.76,23.4l6.88,36.05c-8.51,10.92-18.38,20.71-29.38,29.14
		l-35.99-7.19c-7.55,3.92-15.34,7.11-23.48,9.56l-20.6,30.11c-13.82,1.66-27.72,1.54-41.54-0.37l-20.6-30.45
		c-8.13-2.58-15.93-5.9-23.44-9.91l-36.03,6.56c-10.99-8.62-20.85-18.57-29.38-29.63l6.94-35.89c-1.05-2.09-2.14-4.16-3.05-6.24
		c0,0,5.46-2.31,11.76-4.98c30.12,65.65,97.48,91.73,163.96,63.49S307.82,186.61,281.49,119.35z"/>
</g>
<g id="LWPOLYLINE">
	<polygon class="st2" points="231.23,232.73 243.48,232.73 243.48,164.14 231.23,152.08 	"/>
</g>
<g id="LWPOLYLINE_1_">
	<polygon class="st2" points="55.17,151.22 72.36,151.36 164.06,59.66 255.75,151.36 272.94,151.22 164.06,42.34 120.33,86.07 
		120.33,74.25 104.01,74.25 104.01,102.38 	"/>
</g>
<g id="LWPOLYLINE_2_">
	<polygon class="st2" points="84.63,232.73 96.88,232.73 96.88,152.08 84.63,164.14 	"/>
</g>
</svg>
